 http://www.imdb.com/title/tt0338013/

Source: Eternal.Sunshine.of.the.Spotless.Mind.2004.720p.BluRay.DTS.x264-CtrlHD Thanks!

Subs: Arabic, Brazilian, Czech, Danish, Dutch, English, Farsi-Persian, Greek, Portuguese, Romanian, Servian, Spanish, Turish and Vietnamese.

Sample and Screens included.

General
Complete name                            : Eternal Sunshine of the Spotless Mind-720p MP4 AAC x264 BRRip 2004-CC.mp4
Format                                   : MPEG-4
Format profile                           : Base Media
Codec ID                                 : isom
File size                                : 2.82 GiB
Duration                                 : 1h 47mn
Overall bit rate mode                    : Variable
Overall bit rate                         : 3 747 Kbps
Encoded date                             : UTC 2013-01-22 16:15:02

Video
ID                                       : 1
Format                                   : AVC
Format/Info                              : Advanced Video Codec
Format profile                           : High@L4.1
Format settings, CABAC                   : Yes
Format settings, ReFrames                : 5 frames
Codec ID                                 : avc1
Codec ID/Info                            : Advanced Video Coding
Duration                                 : 1h 47mn
Bit rate                                 : 3 442 Kbps
Maximum bit rate                         : 21.5 Mbps
Width                                    : 1 280 pixels
Height                                   : 688 pixels
Display aspect ratio                     : 1.85:1
Frame rate mode                          : Variable
Frame rate                               : 23.976 fps
Minimum frame rate                       : 19.141 fps
Maximum frame rate                       : 24.390 fps
Color space                              : YUV
Chroma subsampling                       : 4:2:0
Bit depth                                : 8 bits
Scan type                                : Progressive
Bits/(Pixel*Frame)                       : 0.163
Stream size                              : 2.53 GiB (90%)
Writing library                          : x264 core 112

Audio
ID                                       : 2
Format                                   : AAC
Format/Info                              : Advanced Audio Codec
Format profile                           : LC
Codec ID                                 : 40
Duration                                 : 1h 47mn
Bit rate mode                            : Variable
Bit rate                                 : 384 Kbps
Maximum bit rate                         : 685 Kbps
Channel(s)                               : 6 channels
Channel positions                        : Front: L C R, Side: L R, LFE
Sampling rate                            : 48.0 KHz
Compression mode                         : Lossy
Delay relative to video                  : 83ms
Stream size                              : 295 MiB (10%)
Language                                 : English

Enjoy...

Requested by cmptrluvr's

Coming soon: Apocalypse Hitler, Frequency, The Way Back, From Paris with Love and more..